<svg id="Capa_1" enable-background="new 0 0 512 512" height="512" viewBox="0 0 512 512" width="512" xmlns="http://www.w3.org/2000/svg"><g><g><g><g><g><g><g><g><g><g><g><g><g><g><g><g><g><g><g><g><g><g><circle cx="256" cy="256" fill="#1dd882" r="256"/></g></g></g></g></g></g></g></g></g></g></g></g></g></g></g></g></g></g></g></g></g><path d="m511.235 275.938-202.255-202.255-110.606 245.751 89.863 89.863-123.892 36.14 65.214 65.214c8.692.891 17.513 1.349 26.441 1.349 134.675 0 245.061-103.995 255.235-236.062z" fill="#06b26b"/><g><path d="m231.506 298.473h48.988v132.742h-48.988z" fill="#e9edf5"/></g><g><path d="m256.121 298.473h24.374v132.742h-24.374z" fill="#cdd2e1"/></g><g><path d="m256 342.72c-45.82 0-82.964-37.144-82.964-82.964v-122.23c0-45.82 37.144-82.964 82.964-82.964 45.82 0 82.964 37.144 82.964 82.964v122.23c0 45.82-37.144 82.964-82.964 82.964z" fill="#fff"/></g><g><path d="m256.121 54.566v288.151c45.764-.065 82.843-37.181 82.843-82.96v-122.23c0-45.779-37.08-82.895-82.843-82.961z" fill="#e9edf5"/></g><g><path d="m194.37 130.965h123.26v31.605h-123.26z" fill="#9196aa"/></g><g><path d="m194.37 234.713h123.26v31.605h-123.26z" fill="#9196aa"/></g><g><path d="m194.37 182.839h123.26v31.605h-123.26z" fill="#9196aa"/></g><g><path d="m256.121 130.965h61.51v31.605h-61.51z" fill="#707789"/></g><g><path d="m256.121 234.713h61.51v31.605h-61.51z" fill="#707789"/></g><g><path d="m256.121 182.839h61.51v31.605h-61.51z" fill="#707789"/></g><g><path d="m164.345 398.029h183.31v47.408h-183.31z" fill="#fff"/></g><g><path d="m256.121 398.029h91.535v47.408h-91.535z" fill="#e9edf5"/></g></g></svg>