<svg width="24" height="24" viewBox="0 0 24 24" fill="none" xmlns="http://www.w3.org/2000/svg">
<g clip-path="url(#clip0)">
<path d="M21.1731 20.1312L19.5144 17.3679C18.7497 16.0924 18.3451 14.6326 18.3451 13.1447V10.7241C18.3451 6.99821 15.3124 3.96552 11.5865 3.96552C7.86059 3.96552 4.8279 6.99821 4.8279 10.7241V13.1447C4.8279 14.6326 4.42333 16.0924 3.65864 17.3679L1.99987 20.1312C1.91007 20.2798 1.90813 20.4662 1.99312 20.6168C2.07907 20.7684 2.24028 20.8621 2.41407 20.8621H20.7589C20.9327 20.8621 21.0939 20.7685 21.1798 20.6168C21.2648 20.4662 21.2629 20.2798 21.1731 20.1312ZM3.26665 19.8965L4.4861 17.8641C5.34154 16.439 5.7934 14.8073 5.7934 13.1447V10.7241C5.7934 7.52922 8.39161 4.93102 11.5865 4.93102C14.7814 4.93102 17.3796 7.52922 17.3796 10.7241V13.1447C17.3796 14.8073 17.8315 16.439 18.686 17.8641L19.9064 19.8965H3.26665Z" fill="#A0A4A6"/>
<path d="M11.5863 0.586212C10.5213 0.586212 9.65527 1.45228 9.65527 2.51726V4.44831C9.65527 4.71475 9.87157 4.93104 10.138 4.93104C10.4045 4.93104 10.6208 4.71475 10.6208 4.44827V2.51726C10.6208 1.9843 11.0534 1.55176 11.5863 1.55176C12.1193 1.55176 12.5518 1.9843 12.5518 2.51726V4.44831C12.5518 4.71475 12.7681 4.93104 13.0346 4.93104C13.3011 4.93104 13.5174 4.71475 13.5174 4.44827V2.51726C13.5174 1.45228 12.6513 0.586212 11.5863 0.586212Z" fill="#A0A4A6"/>
<path d="M13.6754 20.1348C13.5393 19.905 13.2448 19.8297 13.0141 19.9619C12.7833 20.0971 12.7061 20.3935 12.8412 20.6233C12.9667 20.8367 13.0353 21.0925 13.0353 21.3445C13.0353 22.143 12.3855 22.7928 11.587 22.7928C10.7885 22.7928 10.1387 22.143 10.1387 21.3445C10.1387 21.0925 10.2073 20.8367 10.3328 20.6233C10.467 20.3925 10.3898 20.0971 10.16 19.9619C9.92729 19.8296 9.63374 19.9049 9.4986 20.1348C9.28521 20.4997 9.17224 20.9178 9.17224 21.3446C9.17229 22.676 10.2546 23.7583 11.5861 23.7583C12.9175 23.7583 13.9998 22.676 14.0018 21.3446C14.0018 20.9178 13.8888 20.4997 13.6754 20.1348Z" fill="#A0A4A6"/>
</g>
<defs>
<clipPath id="clip0">
<rect width="23.1724" height="23.1724" fill="white" transform="translate(0 0.586212)"/>
</clipPath>
</defs>
</svg>
